# xmcd
#
# Track frame offsets:
#	150
#	3511
#	13944
#	18214
#	30105
#	62363
#	71586
#	88036
#	100693
#	101270
#	116565
#	121730
#	132126
#	134228
#	145770
#	151083
#	164573
#	183177
#	198122
#	221608
#	235324
#	237096
#	253214
#	257892
#	271550
#
# Disc length: 3743 seconds
#
# Revision: 0
# Processed by: cddbd v1.5.2PL0 Copyright (c) Steve Scherf et al.
# Submitted via: audiograbber 1.83.01
#
DISCID=460e9d19
DTITLE=Hermann Lanomers Mayers  - Tribute to Ernest Tubb
DYEAR=1900
DGENRE=Country
TTITLE0=Hermann Lanomers Mayers  - Town and Country Theme
TTITLE1=The Texas Traubadeers - Rose County Chimes
TTITLE2=Ernest Tubb - I Could Never Say No To You
TTITLE3=Cal Smith  - Interview Spot
TTITLE4=The Texas Traubadeers - Almost To Tulsa
TTITLE5=Cal Smith  - Interview Spot 2
TTITLE6=Dick Shuwey and The Atlas Artists Rhythm Band - Houston Is A Honky Tonk T
TTITLE6=own
TTITLE7=Cal Smith  - Interview Spot 3
TTITLE8=Ernest Tubb - Cold Hard Facts Of Life
TTITLE9=Cal Smith  - Interview Spot 4
TTITLE10=Cal Smith and The Texas Traubadeers - I'll Just Have A Cup Of Coffee And
TTITLE10=Go
TTITLE11=Hermann Lanomers Mayers  - What Took You So Long
TTITLE12=Cal Smith  - Interview Spot 5
TTITLE13=Cal Smith  - Oaklahoma Twister
TTITLE14=Cal Smith  - Interview Spot 6
TTITLE15=Ernest Tubb - The Lord Knows I'm Drinkin' 
TTITLE16=Cal Smith  - Interview Spot 7
TTITLE17=Ernest Tubb - Takin' It Easy Here
TTITLE18=Cal Smith  - Interview Spot 7
TTITLE19=Cal Smith  - Country Bumpkin
TTITLE20=Ernest Tubb and Ernest Tubb - My Baby's Back
TTITLE21=The Texas Traubadeers - Leon and Guitar Boogie
TTITLE22=No Idea - Extra Track 1
TTITLE23=No Idea - Extra Track 2
TTITLE24=No Idea - Extra Track 3
EXTD=
EXTT0=
EXTT1=
EXTT2=
EXTT3=
EXTT4=
EXTT5=
EXTT6=
EXTT7=
EXTT8=
EXTT9=
EXTT10=
EXTT11=
EXTT12=
EXTT13=
EXTT14=
EXTT15=
EXTT16=
EXTT17=
EXTT18=
EXTT19=
EXTT20=
EXTT21=
EXTT22=
EXTT23=
EXTT24=
PLAYORDER=
